#N canvas 465 408 450 300 12;
#X obj 90 62 osc~ 440;
#X obj 91 127 *~;
#X obj 79 185 dac~;
#X obj 175 105 hsl 128 15 0 0.9 0 0 empty empty empty -2 -8 0 10 -262144
-1 -1 0 1;
#X msg 125 97 0.2;
#X obj 3 26 loadbang;
#X connect 0 0 1 0;
#X connect 1 0 2 0;
#X connect 1 0 2 1;
#X connect 4 0 1 1;
#X connect 5 0 4 0;
