#N canvas 0 75 1785 876 12;
#X obj 364 284 sel 0 1 2 3;
#X obj 20 651 *~;
#X obj 8 709 dac~;
#X obj 19 586 osc~;
#X obj 20 557 mtof;
#X obj 62 650 *~;
#X obj 50 708 dac~;
#X obj 61 585 osc~;
#X obj 62 556 mtof;
#X obj 102 651 *~;
#X obj 90 709 dac~;
#X obj 101 586 osc~;
#X obj 102 557 mtof;
#X obj 144 651 *~;
#X obj 132 709 dac~;
#X obj 143 586 osc~;
#X obj 144 557 mtof;
#X obj 311 656 *~;
#X obj 299 714 dac~;
#X obj 310 591 osc~;
#X obj 311 562 mtof;
#X obj 353 655 *~;
#X obj 341 713 dac~;
#X obj 352 590 osc~;
#X obj 353 561 mtof;
#X obj 393 656 *~;
#X obj 381 714 dac~;
#X obj 392 591 osc~;
#X obj 393 562 mtof;
#X obj 435 656 *~;
#X obj 423 714 dac~;
#X obj 434 591 osc~;
#X obj 435 562 mtof;
#X obj 594 655 *~;
#X obj 582 713 dac~;
#X obj 593 590 osc~;
#X obj 594 561 mtof;
#X obj 636 654 *~;
#X obj 624 712 dac~;
#X obj 635 589 osc~;
#X obj 636 560 mtof;
#X obj 676 655 *~;
#X obj 664 713 dac~;
#X obj 675 590 osc~;
#X obj 676 561 mtof;
#X obj 718 655 *~;
#X obj 706 713 dac~;
#X obj 717 590 osc~;
#X obj 718 561 mtof;
#X obj 846 659 *~;
#X obj 834 717 dac~;
#X obj 845 594 osc~;
#X obj 846 565 mtof;
#X obj 888 658 *~;
#X obj 876 716 dac~;
#X obj 887 593 osc~;
#X obj 888 564 mtof;
#X obj 928 659 *~;
#X obj 916 717 dac~;
#X obj 927 594 osc~;
#X obj 928 565 mtof;
#X obj 970 659 *~;
#X obj 958 717 dac~;
#X obj 969 594 osc~;
#X obj 970 565 mtof;
#X obj 659 42 receive d;
#X floatatom 688 87 5 0 0 0 - - -;
#X msg 22 482 50;
#X msg 70 484 53;
#X msg 111 481 57;
#X msg 153 481 60;
#X msg 283 475 55;
#X msg 329 478 59;
#X msg 376 476 62;
#X msg 413 481 65;
#X msg 572 478 48;
#X msg 619 477 52;
#X msg 665 479 55;
#X msg 707 478 59;
#X msg 851 482 53;
#X msg 897 476 57;
#X msg 929 475 60;
#X msg 971 473 64;
#X msg 195 593 0.2;
#X msg 231 593 0;
#X msg 485 600 0.2;
#X msg 515 599 0;
#X msg 755 597 0.2;
#X msg 786 599 0;
#X msg 1007 601 0.2;
#X msg 1038 603 0;
#X floatatom 1119 137 5 0 0 0 - - -;
#X obj 1119 162 mtof;
#X obj 1119 188 osc~;
#X obj 1114 276 dac~;
#X obj 1119 214 *~;
#X msg 1173 182 0.05;
#X obj 364 252 % 4;
#X obj 1120 81 receive melody;
#X connect 0 0 83 0;
#X connect 0 0 86 0;
#X connect 0 0 88 0;
#X connect 0 0 90 0;
#X connect 0 0 67 0;
#X connect 0 0 68 0;
#X connect 0 0 69 0;
#X connect 0 0 70 0;
#X connect 0 1 84 0;
#X connect 0 1 85 0;
#X connect 0 1 88 0;
#X connect 0 1 90 0;
#X connect 0 1 71 0;
#X connect 0 1 72 0;
#X connect 0 1 73 0;
#X connect 0 1 74 0;
#X connect 0 2 84 0;
#X connect 0 2 86 0;
#X connect 0 2 87 0;
#X connect 0 2 90 0;
#X connect 0 2 75 0;
#X connect 0 2 76 0;
#X connect 0 2 77 0;
#X connect 0 2 78 0;
#X connect 0 3 84 0;
#X connect 0 3 86 0;
#X connect 0 3 88 0;
#X connect 0 3 89 0;
#X connect 0 3 79 0;
#X connect 0 3 80 0;
#X connect 0 3 81 0;
#X connect 0 3 82 0;
#X connect 1 0 2 0;
#X connect 1 0 2 1;
#X connect 3 0 1 0;
#X connect 4 0 3 0;
#X connect 5 0 6 0;
#X connect 5 0 6 1;
#X connect 7 0 5 0;
#X connect 8 0 7 0;
#X connect 9 0 10 0;
#X connect 9 0 10 1;
#X connect 11 0 9 0;
#X connect 12 0 11 0;
#X connect 13 0 14 0;
#X connect 13 0 14 1;
#X connect 15 0 13 0;
#X connect 16 0 15 0;
#X connect 17 0 18 0;
#X connect 17 0 18 1;
#X connect 19 0 17 0;
#X connect 20 0 19 0;
#X connect 21 0 22 0;
#X connect 21 0 22 1;
#X connect 23 0 21 0;
#X connect 24 0 23 0;
#X connect 25 0 26 0;
#X connect 25 0 26 1;
#X connect 27 0 25 0;
#X connect 28 0 27 0;
#X connect 29 0 30 0;
#X connect 29 0 30 1;
#X connect 31 0 29 0;
#X connect 32 0 31 0;
#X connect 33 0 34 0;
#X connect 33 0 34 1;
#X connect 35 0 33 0;
#X connect 36 0 35 0;
#X connect 37 0 38 0;
#X connect 37 0 38 1;
#X connect 39 0 37 0;
#X connect 40 0 39 0;
#X connect 41 0 42 0;
#X connect 41 0 42 1;
#X connect 43 0 41 0;
#X connect 44 0 43 0;
#X connect 45 0 46 0;
#X connect 45 0 46 1;
#X connect 47 0 45 0;
#X connect 48 0 47 0;
#X connect 49 0 50 0;
#X connect 49 0 50 1;
#X connect 51 0 49 0;
#X connect 52 0 51 0;
#X connect 53 0 54 0;
#X connect 53 0 54 1;
#X connect 55 0 53 0;
#X connect 56 0 55 0;
#X connect 57 0 58 0;
#X connect 57 0 58 1;
#X connect 59 0 57 0;
#X connect 60 0 59 0;
#X connect 61 0 62 0;
#X connect 61 0 62 1;
#X connect 63 0 61 0;
#X connect 64 0 63 0;
#X connect 65 0 66 0;
#X connect 66 0 97 0;
#X connect 67 0 4 0;
#X connect 68 0 8 0;
#X connect 69 0 12 0;
#X connect 70 0 16 0;
#X connect 71 0 20 0;
#X connect 72 0 24 0;
#X connect 73 0 28 0;
#X connect 74 0 32 0;
#X connect 75 0 36 0;
#X connect 76 0 40 0;
#X connect 77 0 44 0;
#X connect 78 0 48 0;
#X connect 79 0 52 0;
#X connect 80 0 56 0;
#X connect 81 0 60 0;
#X connect 82 0 64 0;
#X connect 83 0 1 1;
#X connect 83 0 5 1;
#X connect 83 0 9 1;
#X connect 83 0 13 1;
#X connect 84 0 1 1;
#X connect 84 0 5 1;
#X connect 84 0 9 1;
#X connect 84 0 13 1;
#X connect 85 0 17 1;
#X connect 85 0 21 1;
#X connect 85 0 25 1;
#X connect 85 0 29 1;
#X connect 86 0 17 1;
#X connect 86 0 21 1;
#X connect 86 0 25 1;
#X connect 86 0 29 1;
#X connect 87 0 33 1;
#X connect 87 0 37 1;
#X connect 87 0 41 1;
#X connect 87 0 45 1;
#X connect 88 0 45 1;
#X connect 88 0 41 1;
#X connect 88 0 37 1;
#X connect 88 0 33 1;
#X connect 89 0 49 1;
#X connect 89 0 53 1;
#X connect 89 0 57 1;
#X connect 89 0 61 1;
#X connect 90 0 49 1;
#X connect 90 0 53 1;
#X connect 90 0 57 1;
#X connect 90 0 61 1;
#X connect 91 0 92 0;
#X connect 92 0 93 0;
#X connect 93 0 95 0;
#X connect 95 0 94 0;
#X connect 95 0 94 1;
#X connect 96 0 95 1;
#X connect 97 0 0 0;
#X connect 98 0 91 0;
#X connect 98 0 96 0;
