#N canvas -98 172 1924 842 12;
#X obj 6 88 sel 0 1 2 3;
#X obj 26 287 *~;
#X obj 14 345 dac~;
#X obj 22 245 osc~;
#X obj 23 216 mtof;
#X obj 68 286 *~;
#X obj 56 344 dac~;
#X obj 64 244 osc~;
#X obj 65 215 mtof;
#X obj 108 287 *~;
#X obj 96 345 dac~;
#X obj 104 245 osc~;
#X obj 105 216 mtof;
#X obj 150 287 *~;
#X obj 138 345 dac~;
#X obj 146 245 osc~;
#X obj 147 216 mtof;
#X obj 317 292 *~;
#X obj 305 350 dac~;
#X obj 313 250 osc~;
#X obj 314 221 mtof;
#X obj 359 291 *~;
#X obj 347 349 dac~;
#X obj 355 249 osc~;
#X obj 356 220 mtof;
#X obj 399 292 *~;
#X obj 387 350 dac~;
#X obj 395 250 osc~;
#X obj 396 221 mtof;
#X obj 441 292 *~;
#X obj 429 350 dac~;
#X obj 437 250 osc~;
#X obj 438 221 mtof;
#X obj 27 524 *~;
#X obj 19 557 dac~;
#X obj 26 459 osc~;
#X obj 27 430 mtof;
#X obj 69 523 *~;
#X obj 61 556 dac~;
#X obj 68 458 osc~;
#X obj 69 429 mtof;
#X obj 109 524 *~;
#X obj 101 557 dac~;
#X obj 108 459 osc~;
#X obj 109 430 mtof;
#X obj 151 524 *~;
#X obj 143 557 dac~;
#X obj 150 459 osc~;
#X obj 151 430 mtof;
#X obj 279 528 *~;
#X obj 271 561 dac~;
#X obj 278 463 osc~;
#X obj 279 434 mtof;
#X obj 321 527 *~;
#X obj 313 560 dac~;
#X obj 320 462 osc~;
#X obj 321 433 mtof;
#X obj 361 528 *~;
#X obj 353 561 dac~;
#X obj 360 463 osc~;
#X obj 361 434 mtof;
#X obj 403 528 *~;
#X obj 395 561 dac~;
#X obj 402 463 osc~;
#X obj 403 434 mtof;
#X obj 8 6 receive d;
#X floatatom 7 34 5 0 0 0 - - -;
#X msg 25 184 50;
#X msg 73 186 53;
#X msg 114 183 57;
#X msg 156 183 60;
#X msg 286 177 55;
#X msg 332 180 59;
#X msg 379 178 62;
#X msg 416 183 65;
#X msg 19 393 48;
#X msg 66 392 52;
#X msg 112 394 55;
#X msg 154 393 59;
#X msg 298 397 53;
#X msg 344 391 57;
#X msg 376 390 60;
#X msg 418 388 64;
#X msg 234 252 0;
#X msg 518 258 0;
#X msg 219 468 0;
#X msg 471 472 0;
#X floatatom 24 631 5 0 0 0 - - -;
#X obj 24 656 mtof;
#X obj 24 682 osc~;
#X obj 25 737 dac~;
#X obj 24 708 *~;
#X obj 6 61 % 4;
#X obj 25 604 receive melody;
#X obj 620 282 bng 15 250 50 0 empty empty empty 17 7 0 10 -262144
-1 -1;
#X obj 584 406 *~;
#X obj 583 597 dac~;
#X text 634 524 volume;
#X text 737 348 Envelope;
#X obj 584 303 noise~;
#X obj 584 379 hip~;
#X obj 609 326 random 200;
#X obj 609 348 + 6000;
#X text 576 279 hihat;
#X obj 691 353 line~;
#X obj 766 109 receive beat;
#X floatatom 766 135 5 0 0 0 - - -;
#X obj 766 160 % 8;
#X obj 766 186 sel 0 1 2 3 4 5 6 7;
#X msg 690 325 0.35 \, 0 100;
#X obj 1147 307 bng 15 250 50 0 empty empty empty 17 7 0 10 -262144
-1 -1;
#X obj 1082 394 *~;
#X obj 1081 590 dac~;
#X obj 1035 310 osc~ 50;
#X text 1069 283 kick;
#X obj 1173 372 line~;
#X obj 1231 230 bng 15 250 50 0 empty empty empty 17 7 0 10 -262144
-1 -1;
#X obj 1275 443 *~;
#X obj 1275 589 dac~;
#X text 1429 340 Envelope;
#X obj 1276 295 noise~;
#X obj 1301 318 random 200;
#X obj 1301 340 + 6000;
#X obj 1383 345 line~;
#X text 1268 271 open hihat;
#X obj 1098 355 lop~ 500;
#X obj 1259 365 bp~;
#X msg 1383 318 0.2 \, 0 500;
#X obj 1273 388 hip~;
#X obj 860 297 bng 15 250 50 0 empty empty empty 17 7 0 10 -262144
-1 -1;
#X obj 814 397 *~;
#X obj 815 587 dac~;
#X text 964 376 Envelope;
#X obj 814 320 noise~;
#X obj 918 375 line~;
#X obj 814 368 lop~ 500;
#X obj 814 346 bp~ 1500;
#X text 812 293 snare;
#X obj 1837 205 bng 15 250 50 0 empty empty empty 17 7 0 10 -262144
-1 -1;
#X text 1884 249 Envelope;
#X obj 1768 331 noise~;
#X obj 1756 227 random 200;
#X obj 1838 254 line~;
#X obj 1734 358 hip~;
#X obj 1753 258 + 18000;
#X text 1771 308 crash;
#X obj 1638 420 osc~;
#X obj 1570 418 osc~;
#X obj 1515 443 *~ 0.1;
#X obj 1580 379 + 7700;
#X obj 1515 417 osc~;
#X obj 1650 379 + 4700;
#X obj 1525 378 + 10000;
#X obj 1772 357 bp~ 8000;
#X obj 1537 278 osc~;
#X obj 1537 304 *~ 0.3;
#X obj 1570 444 *~ 0.2;
#X obj 1699 378 + 2400;
#X obj 1699 404 osc~;
#X obj 1695 448 *~ 0.06;
#X obj 1639 447 *~ 0.12;
#X msg 1847 225 0.1 \, 0 800;
#X text 1675 182 crash;
#X obj 1767 625 dac~;
#X msg 1529 231 110;
#X obj 1769 480 *~;
#X msg 488 259 0.1;
#X msg 198 252 0.1;
#X msg 188 466 0.1;
#X msg 440 470 0.1;
#X msg 78 676 0.03;
#X obj 1033 355 bp~ 700;
#X msg 1172 350 0.9 \, 0 150;
#X msg 918 353 0.9 \, 0 100;
#X obj 584 541 *~ 0.2;
#X obj 1274 531 *~ 0.2;
#X obj 1768 569 *~ 0.3;
#X obj 814 532 *~ 0.6;
#X obj 1082 529 *~ 0.7;
#X connect 0 0 167 0;
#X connect 0 0 84 0;
#X connect 0 0 85 0;
#X connect 0 0 86 0;
#X connect 0 0 67 0;
#X connect 0 0 68 0;
#X connect 0 0 69 0;
#X connect 0 0 70 0;
#X connect 0 1 83 0;
#X connect 0 1 166 0;
#X connect 0 1 85 0;
#X connect 0 1 86 0;
#X connect 0 1 71 0;
#X connect 0 1 72 0;
#X connect 0 1 73 0;
#X connect 0 1 74 0;
#X connect 0 2 83 0;
#X connect 0 2 84 0;
#X connect 0 2 168 0;
#X connect 0 2 86 0;
#X connect 0 2 75 0;
#X connect 0 2 76 0;
#X connect 0 2 77 0;
#X connect 0 2 78 0;
#X connect 0 3 83 0;
#X connect 0 3 84 0;
#X connect 0 3 85 0;
#X connect 0 3 169 0;
#X connect 0 3 79 0;
#X connect 0 3 80 0;
#X connect 0 3 81 0;
#X connect 0 3 82 0;
#X connect 1 0 2 0;
#X connect 1 0 2 1;
#X connect 3 0 1 0;
#X connect 4 0 3 0;
#X connect 5 0 6 0;
#X connect 5 0 6 1;
#X connect 7 0 5 0;
#X connect 8 0 7 0;
#X connect 9 0 10 0;
#X connect 9 0 10 1;
#X connect 11 0 9 0;
#X connect 12 0 11 0;
#X connect 13 0 14 0;
#X connect 13 0 14 1;
#X connect 15 0 13 0;
#X connect 16 0 15 0;
#X connect 17 0 18 0;
#X connect 17 0 18 1;
#X connect 19 0 17 0;
#X connect 20 0 19 0;
#X connect 21 0 22 0;
#X connect 21 0 22 1;
#X connect 23 0 21 0;
#X connect 24 0 23 0;
#X connect 25 0 26 0;
#X connect 25 0 26 1;
#X connect 27 0 25 0;
#X connect 28 0 27 0;
#X connect 29 0 30 0;
#X connect 29 0 30 1;
#X connect 31 0 29 0;
#X connect 32 0 31 0;
#X connect 33 0 34 0;
#X connect 33 0 34 1;
#X connect 35 0 33 0;
#X connect 36 0 35 0;
#X connect 37 0 38 0;
#X connect 37 0 38 1;
#X connect 39 0 37 0;
#X connect 40 0 39 0;
#X connect 41 0 42 0;
#X connect 41 0 42 1;
#X connect 43 0 41 0;
#X connect 44 0 43 0;
#X connect 45 0 46 0;
#X connect 45 0 46 1;
#X connect 47 0 45 0;
#X connect 48 0 47 0;
#X connect 49 0 50 0;
#X connect 49 0 50 1;
#X connect 51 0 49 0;
#X connect 52 0 51 0;
#X connect 53 0 54 0;
#X connect 53 0 54 1;
#X connect 55 0 53 0;
#X connect 56 0 55 0;
#X connect 57 0 58 0;
#X connect 57 0 58 1;
#X connect 59 0 57 0;
#X connect 60 0 59 0;
#X connect 61 0 62 0;
#X connect 61 0 62 1;
#X connect 63 0 61 0;
#X connect 64 0 63 0;
#X connect 65 0 66 0;
#X connect 66 0 92 0;
#X connect 67 0 4 0;
#X connect 68 0 8 0;
#X connect 69 0 12 0;
#X connect 70 0 16 0;
#X connect 71 0 20 0;
#X connect 72 0 24 0;
#X connect 73 0 28 0;
#X connect 74 0 32 0;
#X connect 75 0 36 0;
#X connect 76 0 40 0;
#X connect 77 0 44 0;
#X connect 78 0 48 0;
#X connect 79 0 52 0;
#X connect 80 0 56 0;
#X connect 81 0 60 0;
#X connect 82 0 64 0;
#X connect 83 0 1 1;
#X connect 83 0 5 1;
#X connect 83 0 9 1;
#X connect 83 0 13 1;
#X connect 84 0 17 1;
#X connect 84 0 21 1;
#X connect 84 0 25 1;
#X connect 84 0 29 1;
#X connect 85 0 45 1;
#X connect 85 0 41 1;
#X connect 85 0 37 1;
#X connect 85 0 33 1;
#X connect 86 0 49 1;
#X connect 86 0 53 1;
#X connect 86 0 57 1;
#X connect 86 0 61 1;
#X connect 87 0 88 0;
#X connect 88 0 89 0;
#X connect 89 0 91 0;
#X connect 91 0 90 0;
#X connect 91 0 90 1;
#X connect 92 0 0 0;
#X connect 93 0 87 0;
#X connect 93 0 170 0;
#X connect 94 0 109 0;
#X connect 94 0 101 0;
#X connect 95 0 174 0;
#X connect 99 0 100 0;
#X connect 100 0 95 0;
#X connect 101 0 102 0;
#X connect 102 0 100 1;
#X connect 104 0 95 1;
#X connect 105 0 106 0;
#X connect 106 0 107 0;
#X connect 107 0 108 0;
#X connect 108 0 110 0;
#X connect 108 0 138 0;
#X connect 108 1 94 0;
#X connect 108 2 129 0;
#X connect 108 2 94 0;
#X connect 108 3 94 0;
#X connect 108 4 94 0;
#X connect 108 4 110 0;
#X connect 108 5 94 0;
#X connect 108 6 129 0;
#X connect 108 6 94 0;
#X connect 108 7 116 0;
#X connect 109 0 104 0;
#X connect 110 0 172 0;
#X connect 111 0 178 0;
#X connect 113 0 125 0;
#X connect 113 0 171 0;
#X connect 115 0 111 1;
#X connect 116 0 127 0;
#X connect 116 0 121 0;
#X connect 117 0 175 0;
#X connect 120 0 126 0;
#X connect 121 0 122 0;
#X connect 122 0 126 1;
#X connect 122 0 128 1;
#X connect 123 0 117 1;
#X connect 125 0 111 0;
#X connect 126 0 128 0;
#X connect 127 0 123 0;
#X connect 128 0 117 0;
#X connect 129 0 173 0;
#X connect 130 0 177 0;
#X connect 133 0 136 0;
#X connect 134 0 130 1;
#X connect 135 0 130 0;
#X connect 136 0 135 0;
#X connect 138 0 161 0;
#X connect 138 0 141 0;
#X connect 138 0 164 0;
#X connect 140 0 143 0;
#X connect 140 0 153 0;
#X connect 141 0 144 0;
#X connect 141 0 149 0;
#X connect 141 0 151 0;
#X connect 141 0 152 0;
#X connect 141 0 157 0;
#X connect 142 0 165 1;
#X connect 143 0 165 0;
#X connect 144 0 143 1;
#X connect 146 0 160 0;
#X connect 147 0 156 0;
#X connect 148 0 165 0;
#X connect 149 0 147 0;
#X connect 150 0 148 0;
#X connect 151 0 146 0;
#X connect 152 0 150 0;
#X connect 153 0 165 0;
#X connect 154 0 155 0;
#X connect 155 0 165 0;
#X connect 156 0 165 0;
#X connect 157 0 158 0;
#X connect 158 0 159 0;
#X connect 159 0 165 0;
#X connect 160 0 165 0;
#X connect 161 0 142 0;
#X connect 164 0 154 0;
#X connect 165 0 176 0;
#X connect 166 0 17 1;
#X connect 166 0 21 1;
#X connect 166 0 25 1;
#X connect 166 0 29 1;
#X connect 167 0 1 1;
#X connect 167 0 5 1;
#X connect 167 0 9 1;
#X connect 167 0 13 1;
#X connect 168 0 33 1;
#X connect 168 0 37 1;
#X connect 168 0 41 1;
#X connect 168 0 45 1;
#X connect 169 0 49 1;
#X connect 169 0 53 1;
#X connect 169 0 57 1;
#X connect 169 0 61 1;
#X connect 170 0 91 1;
#X connect 171 0 111 0;
#X connect 172 0 115 0;
#X connect 173 0 134 0;
#X connect 174 0 96 0;
#X connect 174 0 96 1;
#X connect 175 0 118 0;
#X connect 175 0 118 1;
#X connect 176 0 163 0;
#X connect 176 0 163 1;
#X connect 177 0 131 0;
#X connect 177 0 131 1;
#X connect 178 0 112 0;
#X connect 178 0 112 1;
